<?xml version="1.0" encoding="UTF-8" standalone="no"?>
<svg
  width="111pt"
  height="111pt"
  viewBox="0 0 111 111"
  version="1.1"
  xmlns="http://www.w3.org/2000/svg">
  <g>
    <path
      fill-rule="nonzero"
      fill="rgb(100%, 100%, 100%)"
      d="M 47.816406 61.328125 L 45.722656 55.703125 Z M 29.542969 72.117188 L 25.40625 67.773438 C 23.128906 69.941406 22.914062 73.5 24.910156 75.929688 C 26.910156 78.355469 30.445312 78.828125 33.011719 77.011719 Z M 59.042969 58.441406 L 59.664062 64.410156 C 59.667969 64.410156 59.675781 64.40625 59.679688 64.40625 Z M 75.230469 60.824219 L 71.425781 65.464844 C 71.453125 65.488281 71.476562 65.507812 71.503906 65.527344 Z M 79.667969 70.234375 L 73.667969 70.234375 C 73.667969 70.367188 73.671875 70.5 73.679688 70.632812 Z M 76.535156 80.519531 L 71.855469 76.765625 C 71.832031 76.792969 71.808594 76.824219 71.785156 76.851562 Z M 61.914062 86.042969 L 61.316406 80.070312 L 61.308594 80.074219 Z M 41.03125 85.164062 L 39.628906 90.996094 C 39.695312 91.011719 39.757812 91.027344 39.824219 91.039062 Z M 30.066406 93.191406 L 24.1875 91.984375 C 24.125 92.292969 24.085938 92.605469 24.074219 92.917969 Z M 38.421875 103.730469 L 37.078125 109.578125 C 37.238281 109.617188 37.398438 109.644531 37.5625 109.667969 Z M 82.40625 99.589844 L 79.855469 94.160156 Z M 98.984375 70.484375 L 92.984375 70.5625 C 92.984375 70.585938 92.984375 70.609375 92.984375 70.632812 Z M 80.058594 42.757812 L 78.125 48.4375 C 78.160156 48.449219 78.195312 48.460938 78.226562 48.472656 Z M 59.433594 43.636719 L 57.65625 37.90625 C 56.773438 38.179688 55.964844 38.65625 55.296875 39.292969 Z M 47.816406 61.328125 L 45.722656 55.703125 C 40.679688 57.582031 34.054688 61.574219 26.078125 67.21875 L 29.542969 72.117188 L 33.011719 77.011719 C 40.871094 71.449219 46.425781 68.246094 49.914062 66.949219 Z M 59.042969 58.441406 L 58.421875 52.472656 C 54.542969 52.875 50.285156 54.003906 45.722656 55.703125 L 47.816406 61.328125 L 49.914062 66.949219 C 53.878906 65.472656 57.105469 64.675781 59.664062 64.410156 Z M 75.230469 60.824219 L 79.03125 56.183594 C 76.429688 54.050781 73.175781 52.964844 69.835938 52.472656 C 66.472656 51.976562 62.625 52.023438 58.40625 52.476562 L 59.679688 64.40625 C 63.296875 64.019531 66.058594 64.046875 68.089844 64.34375 C 70.144531 64.648438 71.070312 65.175781 71.425781 65.464844 Z M 79.667969 70.234375 L 85.667969 70.234375 C 85.667969 64.558594 83.417969 59.652344 78.953125 56.121094 L 75.230469 60.824219 L 71.503906 65.527344 C 72.957031 66.679688 73.667969 68.046875 73.667969 70.234375 Z M 76.535156 80.519531 L 81.214844 84.277344 C 84.554688 80.117188 86.007812 75.183594 85.652344 69.835938 L 79.667969 70.234375 L 73.679688 70.632812 C 73.847656 73.144531 73.214844 75.074219 71.855469 76.765625 Z M 61.914062 86.042969 L 62.515625 92.011719 C 70.167969 91.242188 77.371094 89.25 81.28125 84.191406 L 76.535156 80.519531 L 71.785156 76.851562 C 71.171875 77.644531 68.628906 79.335938 61.316406 80.070312 Z M 41.03125 85.164062 L 39.824219 91.039062 C 47.011719 92.515625 54.589844 92.816406 62.523438 92.011719 L 61.914062 86.042969 L 61.308594 80.074219 C 54.445312 80.769531 48.101562 80.488281 42.234375 79.285156 Z M 30.066406 93.191406 L 35.945312 94.398438 C 36.492188 91.726562 37.265625 91.039062 37.398438 90.945312 C 37.441406 90.910156 37.53125 90.847656 37.796875 90.8125 C 38.101562 90.773438 38.683594 90.769531 39.628906 90.996094 L 41.03125 85.164062 L 42.433594 79.328125 C 38.382812 78.355469 34.003906 78.554688 30.308594 81.261719 C 26.78125 83.84375 25.03125 87.882812 24.1875 91.984375 Z M 38.421875 103.730469 L 39.761719 97.882812 C 37.730469 97.417969 36.960938 96.746094 36.660156 96.367188 C 36.390625 96.023438 35.976562 95.265625 36.058594 93.46875 L 30.066406 93.191406 L 24.074219 92.917969 C 23.894531 96.804688 24.742188 100.648438 27.257812 103.820312 C 29.742188 106.953125 33.277344 108.707031 37.078125 109.578125 Z M 82.40625 99.589844 L 79.855469 94.160156 C 69.890625 98.839844 56.527344 100.289062 39.277344 97.792969 L 38.421875 103.730469 L 37.5625 109.667969 C 56.164062 112.359375 72.125 111.046875 84.957031 105.023438 Z M 98.984375 70.484375 L 92.984375 70.632812 C 93.140625 76.847656 91.988281 81.644531 89.886719 85.332031 C 87.8125 88.972656 84.585938 91.941406 79.855469 94.160156 L 82.40625 99.589844 L 84.957031 105.023438 C 91.628906 101.890625 96.863281 97.332031 100.316406 91.269531 C 103.742188 85.253906 105.175781 78.171875 104.984375 70.335938 Z M 93.761719 52.921875 L 88.820312 56.320312 C 91.453125 60.152344 92.910156 64.8125 92.984375 70.5625 L 104.984375 70.40625 C 104.882812 62.605469 102.859375 55.558594 98.707031 49.519531 Z M 80.058594 42.757812 L 78.226562 48.472656 C 82.714844 49.910156 86.183594 52.488281 88.820312 56.320312 L 93.761719 52.921875 L 98.707031 49.519531 C 94.554688 43.484375 88.886719 39.289062 81.890625 37.046875 Z M 59.433594 43.636719 L 61.210938 49.367188 C 68.582031 47.082031 74.078125 47.0625 78.125 48.4375 L 80.058594 42.757812 L 81.988281 37.078125 C 74.726562 34.609375 66.472656 35.171875 57.65625 37.90625 Z M 59.433594 43.636719 L 55.296875 39.292969 L 25.40625 67.773438 L 29.542969 72.117188 L 33.683594 76.460938 L 63.574219 47.980469 Z M 59.433594 43.636719 " />
    <path
      fill-rule="evenodd"
      fill="rgb(50.196838%, 63.137817%, 81.96106%)"
      d="M 29.542969 72.117188 C 37.464844 66.511719 43.554688 62.914062 47.816406 61.328125 C 52.082031 59.738281 55.824219 58.777344 59.042969 58.441406 C 66.875 57.605469 72.269531 58.398438 75.230469 60.824219 C 78.1875 63.167969 79.667969 66.304688 79.667969 70.234375 C 79.925781 74.164062 78.882812 77.59375 76.535156 80.519531 C 74.269531 83.449219 69.398438 85.289062 61.914062 86.042969 C 54.519531 86.792969 47.558594 86.5 41.03125 85.164062 C 35.113281 83.742188 31.457031 86.417969 30.066406 93.191406 C 29.804688 98.878906 32.589844 102.394531 38.421875 103.730469 C 56.347656 106.324219 71.007812 104.945312 82.40625 99.589844 C 93.808594 94.238281 99.332031 84.535156 98.984375 70.484375 C 98.898438 63.710938 97.15625 57.855469 93.761719 52.921875 C 90.371094 47.984375 85.800781 44.597656 80.058594 42.757812 C 74.402344 40.835938 67.527344 41.128906 59.433594 43.636719 Z M 29.542969 72.117188 " />
    <path
      fill-rule="nonzero"
      fill="rgb(100%, 100%, 100%)"
      d="M 85.019531 14.28125 L 79.078125 15.121094 C 79.082031 15.152344 79.085938 15.183594 79.089844 15.214844 Z M 79.144531 27.453125 L 75.765625 22.496094 C 75.617188 22.59375 75.476562 22.703125 75.335938 22.816406 Z M 59.433594 43.636719 L 55.628906 39 C 55.511719 39.09375 55.402344 39.191406 55.296875 39.292969 Z M 29.542969 72.117188 L 33.402344 76.710938 C 33.496094 76.632812 33.589844 76.546875 33.683594 76.460938 Z M 15.96875 72.117188 L 10.972656 75.4375 C 11.226562 75.820312 11.523438 76.171875 11.855469 76.484375 Z M 16.101562 57.8125 L 12.21875 53.238281 C 12.210938 53.246094 12.199219 53.253906 12.191406 53.261719 Z M 53.953125 25.695312 L 57.835938 30.273438 C 59.753906 28.644531 60.453125 25.992188 59.585938 23.628906 C 58.71875 21.265625 56.46875 19.695312 53.953125 19.695312 Z M 74.445312 6 L 74.445312 12 C 76.761719 12 77.730469 12.515625 78.089844 12.792969 C 78.347656 12.996094 78.847656 13.5 79.078125 15.121094 L 85.019531 14.28125 L 90.957031 13.4375 C 90.40625 9.539062 88.75 5.902344 85.488281 3.347656 C 82.320312 0.863281 78.394531 0 74.445312 0 Z M 85.019531 14.28125 L 79.089844 15.214844 C 79.375 17.019531 79.15625 18.296875 78.722656 19.269531 C 78.28125 20.257812 77.429688 21.363281 75.765625 22.496094 L 82.523438 32.410156 C 85.648438 30.28125 88.164062 27.558594 89.683594 24.15625 C 91.207031 20.738281 91.53125 17.0625 90.945312 13.347656 Z M 79.144531 27.453125 L 75.335938 22.816406 L 55.628906 39 L 59.433594 43.636719 L 63.242188 48.273438 L 82.953125 32.089844 Z M 59.433594 43.636719 L 55.296875 39.292969 L 25.40625 67.773438 L 29.542969 72.117188 L 33.683594 76.460938 L 63.574219 47.980469 Z M 29.542969 72.117188 L 25.6875 67.519531 C 23.96875 68.964844 22.957031 69.125 22.5625 69.125 C 22.238281 69.125 21.441406 69.027344 20.082031 67.746094 L 15.96875 72.117188 L 11.855469 76.484375 C 14.761719 79.21875 18.359375 81.125 22.5625 81.125 C 26.6875 81.125 30.335938 79.285156 33.402344 76.710938 Z M 15.96875 72.117188 L 20.964844 68.792969 C 19.308594 66.300781 18.992188 64.789062 19 64.078125 C 19.003906 63.664062 19.085938 63.160156 20.007812 62.367188 L 16.101562 57.8125 L 12.191406 53.261719 C 9.023438 55.980469 7.039062 59.617188 7 63.96875 C 6.964844 68.027344 8.628906 71.910156 10.972656 75.4375 Z M 16.101562 57.8125 L 19.980469 62.390625 L 57.835938 30.273438 L 53.953125 25.695312 L 50.070312 21.121094 L 12.21875 53.238281 Z M 53.953125 25.695312 L 53.953125 19.695312 L 32.9375 19.695312 L 32.9375 31.695312 L 53.953125 31.695312 Z M 32.9375 25.695312 L 32.9375 19.695312 C 30.410156 19.695312 29.628906 19.085938 29.460938 18.925781 C 29.335938 18.804688 28.757812 18.1875 28.757812 15.910156 L 16.757812 15.910156 C 16.757812 20.160156 17.875 24.433594 21.144531 27.574219 C 24.371094 30.675781 28.679688 31.695312 32.9375 31.695312 Z M 22.757812 15.910156 L 28.757812 15.910156 C 28.757812 13.574219 29.347656 12.914062 29.488281 12.777344 C 29.65625 12.613281 30.429688 12 32.9375 12 L 32.9375 0 C 28.660156 0 24.339844 1.039062 21.117188 4.179688 C 17.863281 7.347656 16.757812 11.640625 16.757812 15.910156 Z M 32.9375 6 L 32.9375 12 L 74.445312 12 L 74.445312 0 L 32.9375 0 Z M 32.9375 6 " />
    <path
      fill-rule="nonzero"
      fill="rgb(67.451477%, 84.313965%, 100%)"
      d="M 74.445312 6 C 80.710938 6 84.234375 8.761719 85.019531 14.28125 C 85.886719 19.800781 83.929688 24.191406 79.144531 27.453125 L 59.433594 43.636719 L 29.542969 72.117188 C 24.757812 76.128906 20.234375 76.128906 15.96875 72.117188 C 11.96875 66.09375 12.011719 61.328125 16.101562 57.8125 L 53.953125 25.695312 L 32.9375 25.695312 C 26.152344 25.695312 22.757812 22.433594 22.757812 15.910156 C 22.757812 9.304688 26.152344 6 32.9375 6 Z M 74.445312 6 " />
  </g>
</svg>
